HIERARCHY
ROOT Hips
{
	OFFSET 0.000000 103.266502 0.000000
	CHANNELS 6 Xposition Yposition Zposition Xrotation Yrotation Zrotation 
	JOINT Spine
	{
		OFFSET -0.002400 12.777504 0.315300
		CHANNELS 3 Xrotation Yrotation Zrotation
		JOINT Spine1
		{
			OFFSET -0.002067 5.816869 0.032633
			CHANNELS 3 Xrotation Yrotation Zrotation
			JOINT Spine1_split
			{
				OFFSET -0.002067 5.816869 0.032633
				CHANNELS 3 Xrotation Yrotation Zrotation
				JOINT Spine2
				{
					OFFSET -0.002067 5.816869 0.032633
					CHANNELS 3 Xrotation Yrotation Zrotation
					JOINT Neck
					{
						OFFSET -0.003700 21.199493 -0.826900
						CHANNELS 3 Xrotation Yrotation Zrotation
						JOINT Head
						{
							OFFSET 0.000000 20.442200 4.834800
							CHANNELS 3 Xrotation Yrotation Zrotation
							JOINT HeadTop_End
							{
								OFFSET 0.000000 34.668396 4.968400
								CHANNELS 3 Xrotation Yrotation Zrotation
								End Site
								{
									OFFSET 0.000000 0.000000 0.000000
								}
							}
						}
					}
					JOINT LeftShoulder
					{
						OFFSET 3.288150 8.794197 -1.372250
						CHANNELS 3 Xrotation Yrotation Zrotation
						JOINT LeftShoulder_split
						{
							OFFSET 3.288150 8.794197 -1.372250
							CHANNELS 3 Xrotation Yrotation Zrotation
							JOINT LeftArm
							{
								OFFSET 11.953299 -2.279007 -0.146200
								CHANNELS 3 Xrotation Yrotation Zrotation
								JOINT LeftForeArm
								{
									OFFSET 18.448900 0.000000 0.000000
									CHANNELS 3 Xrotation Yrotation Zrotation
									JOINT LeftHand
									{
										OFFSET 29.527798 0.000000 0.000000
										CHANNELS 3 Xrotation Yrotation Zrotation
										JOINT LeftHandThumb1
										{
											OFFSET 10.739754 -2.369614 9.225399
											CHANNELS 3 Xrotation Yrotation Zrotation
											JOINT LeftHandThumb2
											{
												OFFSET 4.926170 -2.844131 2.844125
												CHANNELS 3 Xrotation Yrotation Zrotation
												JOINT LeftHandThumb3
												{
													OFFSET 4.614891 -2.664413 2.664409
													CHANNELS 3 Xrotation Yrotation Zrotation
													JOINT LeftHandThumb4
													{
														OFFSET 4.432465 -2.559082 2.559083
														CHANNELS 3 Xrotation Yrotation Zrotation
														End Site
														{
															OFFSET 0.000000 0.000000 0.000000
														}
													}
												}
											}
										}
										JOINT LeftHandIndex1
										{
											OFFSET 26.467674 0.187653 6.405298
											CHANNELS 3 Xrotation Yrotation Zrotation
											JOINT LeftHandIndex2
											{
												OFFSET 8.792900 0.000000 0.000000
												CHANNELS 3 Xrotation Yrotation Zrotation
												JOINT LeftHandIndex3
												{
													OFFSET 10.075203 0.000000 0.000000
													CHANNELS 3 Xrotation Yrotation Zrotation
													End Site
													{
														OFFSET 0.000000 0.000000 0.000000
													}
												}
											}
										}
										JOINT LeftHandMiddle1
										{
											OFFSET 25.764404 0.000000 0.000000
											CHANNELS 3 Xrotation Yrotation Zrotation
											JOINT LeftHandMiddle2
											{
												OFFSET 9.393974 0.000000 0.000000
												CHANNELS 3 Xrotation Yrotation Zrotation
												JOINT LeftHandMiddle3
												{
													OFFSET 10.771950 0.000000 0.000000
													CHANNELS 3 Xrotation Yrotation Zrotation
													End Site
													{
														OFFSET 0.000000 0.000000 0.000000
													}
												}
											}
										}
										JOINT LeftHandRing1
										{
											OFFSET 24.660927 0.144547 -6.225808
											CHANNELS 3 Xrotation Yrotation Zrotation
											JOINT LeftHandRing2
											{
												OFFSET 9.393799 0.000000 0.000000
												CHANNELS 3 Xrotation Yrotation Zrotation
												JOINT LeftHandRing3
												{
													OFFSET 9.928497 0.000000 0.000000
													CHANNELS 3 Xrotation Yrotation Zrotation
													End Site
													{
														OFFSET 0.000000 0.000000 0.000000
													}
												}
											}
										}
										JOINT LeftHandPinky1
										{
											OFFSET 23.655350 0.125290 -12.815412
											CHANNELS 3 Xrotation Yrotation Zrotation
											JOINT LeftHandPinky2
											{
												OFFSET 8.425102 0.000000 0.000000
												CHANNELS 3 Xrotation Yrotation Zrotation
												JOINT LeftHandPinky3
												{
													OFFSET 8.147003 0.000000 0.000000
													CHANNELS 3 Xrotation Yrotation Zrotation
													End Site
													{
														OFFSET 0.000000 0.000000 0.000000
													}
												}
											}
										}
									}
								}
							}
						}
					}
					JOINT RightShoulder
					{
						OFFSET -3.249400 8.794197 -1.372250
						CHANNELS 3 Xrotation Yrotation Zrotation
						JOINT RightShoulder_split
						{
							OFFSET -3.249400 8.794197 -1.372250
							CHANNELS 3 Xrotation Yrotation Zrotation
							JOINT RightArm
							{
								OFFSET -11.953299 -2.279007 -0.146200
								CHANNELS 3 Xrotation Yrotation Zrotation
								JOINT RightForeArm
								{
									OFFSET -18.448900 0.000000 0.000000
									CHANNELS 3 Xrotation Yrotation Zrotation
									JOINT RightHand
									{
										OFFSET -29.527802 0.000000 0.000000
										CHANNELS 3 Xrotation Yrotation Zrotation
										JOINT RightHandThumb1
										{
											OFFSET -10.739754 -2.369614 9.225399
											CHANNELS 3 Xrotation Yrotation Zrotation
											JOINT RightHandThumb2
											{
												OFFSET -4.926170 -2.844131 2.844125
												CHANNELS 3 Xrotation Yrotation Zrotation
												JOINT RightHandThumb3
												{
													OFFSET -4.614891 -2.664413 2.664409
													CHANNELS 3 Xrotation Yrotation Zrotation
													JOINT RightHandThumb4
													{
														OFFSET -4.432465 -2.559082 2.559083
														CHANNELS 3 Xrotation Yrotation Zrotation
														End Site
														{
															OFFSET 0.000000 0.000000 0.000000
														}
													}
												}
											}
										}
										JOINT RightHandIndex1
										{
											OFFSET -26.467674 0.187653 6.405298
											CHANNELS 3 Xrotation Yrotation Zrotation
											JOINT RightHandIndex2
											{
												OFFSET -8.792900 0.000000 0.000000
												CHANNELS 3 Xrotation Yrotation Zrotation
												JOINT RightHandIndex3
												{
													OFFSET -10.075203 0.000000 0.000000
													CHANNELS 3 Xrotation Yrotation Zrotation
													End Site
													{
														OFFSET 0.000000 0.000000 0.000000
													}
												}
											}
										}
										JOINT RightHandMiddle1
										{
											OFFSET -25.764404 0.000000 0.000000
											CHANNELS 3 Xrotation Yrotation Zrotation
											JOINT RightHandMiddle2
											{
												OFFSET -9.393974 0.000000 0.000000
												CHANNELS 3 Xrotation Yrotation Zrotation
												JOINT RightHandMiddle3
												{
													OFFSET -10.771950 0.000000 0.000000
													CHANNELS 3 Xrotation Yrotation Zrotation
													End Site
													{
														OFFSET 0.000000 0.000000 0.000000
													}
												}
											}
										}
										JOINT RightHandRing1
										{
											OFFSET -24.660927 0.144547 -6.225808
											CHANNELS 3 Xrotation Yrotation Zrotation
											JOINT RightHandRing2
											{
												OFFSET -9.393799 0.000000 0.000000
												CHANNELS 3 Xrotation Yrotation Zrotation
												JOINT RightHandRing3
												{
													OFFSET -9.928497 0.000000 0.000000
													CHANNELS 3 Xrotation Yrotation Zrotation
													End Site
													{
														OFFSET 0.000000 0.000000 0.000000
													}
												}
											}
										}
										JOINT RightHandPinky1
										{
											OFFSET -23.655350 0.125290 -12.815412
											CHANNELS 3 Xrotation Yrotation Zrotation
											JOINT RightHandPinky2
											{
												OFFSET -8.425102 0.000000 0.000000
												CHANNELS 3 Xrotation Yrotation Zrotation
												JOINT RightHandPinky3
												{
													OFFSET -8.147003 0.000000 0.000000
													CHANNELS 3 Xrotation Yrotation Zrotation
													End Site
													{
														OFFSET 0.000000 0.000000 0.000000
													}
												}
											}
										}
									}
								}
							}
						}
					}
				}
			}
		}
	}
	JOINT LeftUpLeg
	{
		OFFSET 11.394100 -6.187798 -0.413800
		CHANNELS 3 Xrotation Yrotation Zrotation
		JOINT LeftLeg
		{
			OFFSET 0.430247 -32.302673 3.732800
			CHANNELS 3 Xrotation Yrotation Zrotation
			JOINT LeftFoot
			{
				OFFSET -0.430247 -48.264931 -6.423300
				CHANNELS 3 Xrotation Yrotation Zrotation
				JOINT LeftToeBase
				{
					OFFSET 4.230900 -16.068199 23.438400
					CHANNELS 3 Xrotation Yrotation Zrotation
					JOINT LeftToe_End
					{
						OFFSET 4.510700 0.695400 19.974600
						CHANNELS 3 Xrotation Yrotation Zrotation
						End Site
						{
							OFFSET 0.000000 0.000000 0.000000
						}
					}
				}
			}
		}
	}
	JOINT RightUpLeg
	{
		OFFSET -11.333700 -6.187798 -0.413800
		CHANNELS 3 Xrotation Yrotation Zrotation
		JOINT RightLeg
		{
			OFFSET -0.430392 -32.302628 3.733000
			CHANNELS 3 Xrotation Yrotation Zrotation
			JOINT RightFoot
			{
				OFFSET 0.430392 -48.264973 -6.423500
				CHANNELS 3 Xrotation Yrotation Zrotation
				JOINT RightToeBase
				{
					OFFSET -4.230900 -16.068199 23.438400
					CHANNELS 3 Xrotation Yrotation Zrotation
					JOINT RightToe_End
					{
						OFFSET -4.510700 0.695400 19.974600
						CHANNELS 3 Xrotation Yrotation Zrotation
						End Site
						{
							OFFSET 0.000000 0.000000 0.000000
						}
					}
				}
			}
		}
	}
}
MOTION
Frames: 5
Frame Time: 0.016667
-0.651731 90.574303 0.256398 12.353053 -55.937453 11.297079 11.717284 1.394601 -2.739726 -7.573174 6.733747 -2.520092 0.000000 0.000000 0.000000 0.220139 5.397600 -4.595491 -12.580310 9.083975 1.899286 -4.773440 33.430743 5.660078 -0.000000 -0.000000 0.000000 -31.809700 13.410708 5.488761 0.000000 0.000000 0.000000 38.429516 -24.730793 -35.179193 0.000006 -63.060862 0.000000 -30.857586 -7.137408 36.647848 -1.721979 5.255660 -13.188787 20.563152 52.534680 0.189433 -40.349725 66.790111 65.646669 -0.000002 -0.000001 0.000000 12.956322 -4.115574 -90.449723 8.952183 4.964070 -122.050986 -0.000003 -0.000002 -0.000003 9.405894 8.323704 -88.069067 9.453609 4.613522 -128.051745 -0.000002 -0.000001 0.000000 6.580874 8.180121 -91.968094 8.173838 5.371742 -113.426015 -0.000000 0.000001 -0.000000 -3.227031 20.112015 -75.571706 5.936847 5.850434 -90.841400 0.000004 0.000001 0.000001 0.882305 7.689496 10.202001 0.000000 0.000000 0.000000 7.550367 1.963486 57.853738 0.000006 75.685162 -0.000012 35.320855 10.055755 5.680944 -3.341835 -3.276478 13.774155 20.875196 -54.536048 -0.016299 -51.849721 -71.995071 -77.305290 -0.000002 -0.000001 0.000000 11.836836 5.289182 89.687419 7.123248 -3.951840 122.001659 -0.000000 -0.000000 0.000002 8.171042 -7.103227 87.309017 7.522349 -3.673014 127.998496 0.000002 -0.000001 0.000002 4.801484 -6.930786 91.181318 6.503995 -4.276060 113.385976 0.000000 0.000001 0.000001 -4.344479 -18.765282 74.899212 4.725355 -4.656676 90.839781 0.000002 0.000001 -0.000002 -46.991080 5.824124 28.668104 40.677748 -9.862305 -9.781887 -1.461340 -1.264650 -5.522654 0.440890 0.001373 -0.456726 -0.000000 0.000001 0.000000 -35.997986 -8.041866 -20.902448 51.077818 7.551776 -1.118017 -28.868822 -4.208954 11.206578 9.011166 -0.000002 -0.000002 0.000000 0.000001 -0.000000 
-0.681501 90.584160 0.248499 12.307318 -55.936620 11.238403 11.717312 1.394583 -2.740461 -7.573176 6.733739 -2.520089 0.000000 0.000000 0.000000 0.220135 5.397600 -4.595489 -12.569274 9.762733 2.145933 -4.477372 32.927874 5.264195 0.000000 -0.000000 -0.000000 -31.777810 12.952637 5.310877 0.000000 0.000000 0.000000 38.682899 -24.912978 -34.934553 -0.000048 -62.511674 -0.000059 -31.157520 -7.391293 36.475263 -1.721955 5.255660 -13.188766 20.563155 52.534639 0.189422 -40.349759 66.790111 65.646703 0.000000 0.000001 -0.000000 12.956311 -4.115586 -90.449716 8.952198 4.964044 -122.051000 0.000002 0.000001 0.000001 9.405900 8.323700 -88.069074 9.453611 4.613524 -128.051731 -0.000001 -0.000001 -0.000001 6.580880 8.180089 -91.968094 8.173832 5.371723 -113.426015 -0.000001 0.000001 0.000001 -3.227035 20.112001 -75.571686 5.936832 5.850425 -90.841400 0.000002 -0.000003 0.000001 1.018009 7.684533 10.077998 0.000000 0.000000 0.000000 7.270292 2.953160 57.421059 -0.000079 75.186149 0.000092 34.670969 9.864173 5.516722 -3.341841 -3.276458 13.774157 20.875181 -54.536059 -0.016310 -51.849578 -71.995043 -77.305174 -0.000004 0.000001 0.000000 11.836814 5.289179 89.687405 7.123249 -3.951873 122.001631 0.000001 -0.000000 0.000001 8.171042 -7.103213 87.309017 7.522348 -3.673048 127.998455 0.000000 -0.000002 -0.000001 4.801471 -6.930777 91.181325 6.504000 -4.276073 113.385996 -0.000000 0.000000 0.000002 -4.344468 -18.765269 74.899219 4.725348 -4.656671 90.839774 0.000000 -0.000003 0.000001 -46.937664 5.816470 28.711089 40.649294 -9.813607 -9.790868 -1.456638 -1.333838 -5.542470 0.439819 0.001358 -0.459615 -0.000000 0.000001 0.000000 -35.931317 -8.079304 -20.867688 51.048697 7.552838 -1.117882 -28.882818 -4.211040 11.187632 9.011161 -0.000030 0.000003 -0.000000 -0.000001 0.000000 
-0.720078 90.583168 0.242664 12.268730 -55.881787 11.187558 11.717327 1.394721 -2.741507 -7.573172 6.733740 -2.520090 0.000000 0.000000 0.000000 0.220139 5.397584 -4.595490 -12.608600 10.491369 2.412570 -4.224774 32.405754 4.896690 -0.000000 0.000000 0.000000 -31.754079 12.465672 5.128834 0.000000 0.000000 0.000000 39.012299 -25.126437 -34.726990 0.000001 -61.838777 -0.000008 -31.459619 -7.671472 36.216156 -1.721952 5.255650 -13.188779 20.563150 52.534646 0.189426 -40.349725 66.790111 65.646676 -0.000001 -0.000001 0.000000 12.956305 -4.115569 -90.449716 8.952193 4.964077 -122.051000 0.000002 -0.000000 -0.000000 9.405902 8.323705 -88.069067 9.453609 4.613520 -128.051731 -0.000001 -0.000000 0.000002 6.580884 8.180106 -91.968101 8.173831 5.371722 -113.426008 0.000003 0.000001 0.000001 -3.227029 20.112001 -75.571713 5.936835 5.850425 -90.841407 0.000002 -0.000003 0.000002 1.163710 7.679725 9.947277 0.000000 0.000000 0.000000 6.979124 3.931129 56.951757 0.000063 74.671726 -0.000076 33.974536 9.691015 5.366355 -3.341828 -3.276481 13.774151 20.875179 -54.536042 -0.016317 -51.849568 -71.995030 -77.305153 -0.000001 -0.000000 0.000002 11.836832 5.289155 89.687419 7.123259 -3.951885 122.001618 0.000001 0.000001 0.000000 8.171032 -7.103228 87.309024 7.522367 -3.673048 127.998455 0.000004 -0.000001 -0.000000 4.801482 -6.930792 91.181318 6.503993 -4.276064 113.386003 -0.000004 0.000000 -0.000001 -4.344462 -18.765277 74.899226 4.725349 -4.656676 90.839788 -0.000001 -0.000003 0.000001 -46.927156 5.803468 28.742502 40.635131 -9.770159 -9.800134 -1.441952 -1.444387 -5.557100 0.437671 0.001409 -0.465301 -0.000000 -0.000002 0.000000 -35.868233 -8.113662 -20.836363 51.047775 7.552564 -1.117856 -28.925472 -4.263671 11.158806 9.011157 0.000008 -0.000002 -0.000000 -0.000000 0.000000 
-0.754443 90.591171 0.239738 12.235538 -55.864138 11.135232 11.717347 1.394779 -2.742209 -7.573165 6.733732 -2.520088 0.000000 0.000000 0.000000 0.220139 5.397599 -4.595492 -12.694474 11.267582 2.689842 -3.974851 31.886882 4.534251 0.000000 -0.000000 -0.000000 -31.738359 11.953786 4.944347 0.000000 0.000000 0.000000 39.461578 -25.312637 -34.536869 -0.000015 -61.081043 -0.000030 -31.790023 -7.989006 35.931802 -1.721960 5.255653 -13.188785 20.563150 52.534639 0.189406 -40.349793 66.790125 65.646717 -0.000002 -0.000002 0.000000 12.956318 -4.115572 -90.449723 8.952176 4.964072 -122.051000 -0.000001 -0.000001 0.000001 9.405889 8.323691 -88.069074 9.453618 4.613536 -128.051758 0.000002 -0.000000 0.000001 6.580880 8.180099 -91.968108 8.173822 5.371735 -113.426001 -0.000001 0.000003 0.000001 -3.227023 20.112015 -75.571713 5.936845 5.850440 -90.841386 -0.000000 -0.000002 0.000001 1.316084 7.674888 9.811789 0.000000 0.000000 0.000000 6.684423 4.902614 56.464286 0.000048 74.142919 -0.000048 33.251089 9.531736 5.218431 -3.341834 -3.276461 13.774165 20.875172 -54.536072 -0.016327 -51.849650 -71.995057 -77.305228 -0.000001 0.000001 0.000002 11.836827 5.289169 89.687405 7.123249 -3.951868 122.001618 -0.000002 -0.000001 -0.000002 8.171049 -7.103205 87.309010 7.522339 -3.673035 127.998442 0.000002 -0.000000 0.000000 4.801475 -6.930776 91.181325 6.503996 -4.276070 113.386017 0.000001 0.000001 0.000000 -4.344466 -18.765262 74.899219 4.725356 -4.656668 90.839781 -0.000001 0.000000 0.000000 -46.891250 5.793037 28.785340 40.612257 -9.722867 -9.809261 -1.437375 -1.527266 -5.574217 0.436260 0.001454 -0.469062 -0.000000 -0.000001 -0.000000 -35.800242 -8.154651 -20.799063 51.018009 7.553531 -1.117722 -28.946844 -4.280791 11.138698 9.011151 -0.000000 0.000000 0.000000 0.000002 -0.000000 
-0.801022 90.590843 0.237759 12.211588 -55.800392 11.091872 11.717384 1.394971 -2.743205 -7.573169 6.733731 -2.520089 0.000000 0.000000 0.000000 0.220138 5.397601 -4.595490 -12.821392 12.084338 2.975461 -3.719843 31.374143 4.175470 -0.000000 -0.000000 0.000000 -31.730419 11.421055 4.759071 0.000000 0.000000 0.000000 39.967023 -25.538415 -34.374255 -0.000001 -60.212380 -0.000009 -32.136740 -8.340121 35.571191 -1.721960 5.255653 -13.188767 20.563143 52.534649 0.189415 -40.349780 66.790139 65.646724 0.000000 -0.000001 0.000001 12.956312 -4.115591 -90.449723 8.952187 4.964057 -122.051000 -0.000002 -0.000000 -0.000002 9.405897 8.323691 -88.069067 9.453602 4.613520 -128.051758 -0.000001 -0.000000 -0.000003 6.580887 8.180117 -91.968101 8.173833 5.371712 -113.425994 0.000000 0.000000 0.000001 -3.227047 20.112004 -75.571720 5.936834 5.850440 -90.841379 0.000004 -0.000002 0.000002 1.475924 7.670222 9.670639 0.000000 0.000000 0.000000 6.392938 5.865447 55.957325 -0.000035 73.593553 0.000029 32.501892 9.387933 5.067080 -3.341834 -3.276452 13.774157 20.875150 -54.536076 -0.016349 -51.849643 -71.995071 -77.305228 -0.000001 -0.000001 0.000001 11.836830 5.289174 89.687405 7.123276 -3.951885 122.001631 -0.000000 0.000002 0.000002 8.171053 -7.103209 87.309010 7.522360 -3.673025 127.998483 -0.000000 -0.000001 0.000001 4.801489 -6.930758 91.181325 6.503993 -4.276068 113.385976 0.000001 -0.000000 -0.000001 -4.344468 -18.765265 74.899226 4.725358 -4.656671 90.839774 -0.000002 -0.000000 -0.000001 -46.887688 5.776467 28.819594 40.599737 -9.676708 -9.818469 -1.427320 -1.647032 -5.590504 0.433867 0.001480 -0.475437 0.000000 -0.000003 -0.000000 -35.733186 -8.195983 -20.762395 51.010380 7.553410 -1.117699 -28.995242 -4.340129 11.108015 9.011157 0.000007 -0.000006 -0.000000 0.000002 -0.000000 
